<svg version="1.1" id="Layer_1" xmlns="http://www.w3.org/2000/svg" xmlns:xlink="http://www.w3.org/1999/xlink" x="0px" y="0px"
	 width="100%" viewBox="0 0 192 192" enable-background="new 0 0 192 192" xml:space="preserve">
<path fill="#FFAAAA" opacity="1.000000" stroke="none" 
	d="
M1.000000,184.000000 
	C1.000000,126.312439 1.000000,68.624878 1.272853,10.813120 
	C4.411205,7.947208 7.294887,5.223782 10.106980,2.428339 
	C10.327097,2.209527 10.047401,1.487924 10.000000,1.000000 
	C67.354225,1.000000 124.708458,1.000000 182.203796,1.273256 
	C184.746872,3.462525 187.203140,5.315545 189.529251,7.319620 
	C190.799927,8.414377 191.850296,9.764844 193.000000,10.999996 
	C193.000000,68.020897 193.000000,125.041786 192.726288,182.203720 
	C189.628647,185.248672 186.771851,188.122238 184.025070,191.097366 
	C183.705124,191.443893 183.993607,192.352173 184.000000,193.000000 
	C126.312439,193.000000 68.624878,193.000000 10.813101,192.727142 
	C7.947184,189.588837 5.223770,186.705215 2.428349,183.893173 
	C2.209510,183.673019 1.487926,183.952652 1.000000,184.000000 
M119.682915,83.127632 
	C119.682915,106.225937 119.682915,129.324249 119.682915,152.546997 
	C125.672737,152.546997 131.206131,152.546997 136.609970,152.546997 
	C136.609970,115.259163 136.609970,78.379089 136.609970,41.149990 
	C130.074127,41.149990 123.918198,41.404602 117.797043,41.053371 
	C114.192635,40.846554 112.861526,42.272465 112.009163,45.492393 
	C109.541336,54.815037 106.813858,64.069130 104.171768,73.345421 
	C101.976860,81.051682 99.758545,88.751282 97.550591,96.453827 
	C97.187820,96.439415 96.825043,96.425003 96.462273,96.410599 
	C91.201172,78.014648 85.940063,59.618702 80.778801,41.571846 
	C72.452156,41.571846 64.884949,41.571846 57.484917,41.571846 
	C57.484917,78.884941 57.484917,115.774803 57.484917,152.665466 
	C63.307762,152.665466 68.734573,152.665466 74.650330,152.665466 
	C74.650330,128.866379 74.650330,105.347145 74.650330,81.827919 
	C76.137138,83.317810 76.729126,84.950531 77.224442,86.612068 
	C79.885178,95.537483 82.413300,104.504028 85.192276,113.392250 
	C89.368881,126.750610 89.441177,126.729263 103.638786,126.057068 
	C103.964096,126.041672 104.283913,125.910240 105.180756,125.695175 
	C109.410233,111.332138 113.723366,96.684998 118.607376,81.916817 
	C118.983009,82.017738 119.358650,82.118660 119.682915,83.127632 
z"/>
<path fill="#000000" opacity="1.000000" stroke="none" 
	d="
M193.000000,10.513432 
	C191.850296,9.764844 190.799927,8.414377 189.529251,7.319620 
	C187.203140,5.315545 184.746872,3.462525 182.672455,1.273256 
	C186.252457,1.000000 189.504913,1.000000 193.000000,1.000000 
	C193.000000,4.006597 193.000000,7.016734 193.000000,10.513432 
z"/>
<path fill="#000000" opacity="1.000000" stroke="none" 
	d="
M184.491058,193.000000 
	C183.993607,192.352173 183.705124,191.443893 184.025070,191.097366 
	C186.771851,188.122238 189.628647,185.248672 192.726288,182.672379 
	C193.000000,186.246475 193.000000,189.492935 193.000000,193.000000 
	C190.330307,193.000000 187.656204,193.000000 184.491058,193.000000 
z"/>
<path fill="#000000" opacity="1.000000" stroke="none" 
	d="
M9.508952,1.000000 
	C10.047401,1.487924 10.327097,2.209527 10.106980,2.428339 
	C7.294887,5.223782 4.411205,7.947208 1.272853,10.344463 
	C1.000000,7.082645 1.000000,4.165290 1.000000,1.000000 
	C3.670005,1.000000 6.343954,1.000000 9.508952,1.000000 
z"/>
<path fill="#000000" opacity="1.000000" stroke="none" 
	d="
M1.000000,184.491058 
	C1.487926,183.952652 2.209510,183.673019 2.428349,183.893173 
	C5.223770,186.705215 7.947184,189.588837 10.344442,192.727142 
	C7.082646,193.000000 4.165292,193.000000 1.000000,193.000000 
	C1.000000,190.330002 1.000000,187.656052 1.000000,184.491058 
z"/>
<path fill="#580303" opacity="1.000000" stroke="none" 
	d="
M118.036499,82.037849 
	C113.723366,96.684998 109.410233,111.332138 105.180756,125.695175 
	C104.283913,125.910240 103.964096,126.041672 103.638786,126.057068 
	C89.441177,126.729263 89.368881,126.750610 85.192276,113.392250 
	C82.413300,104.504028 79.885178,95.537483 77.224442,86.612068 
	C76.729126,84.950531 76.137138,83.317810 74.650330,81.827919 
	C74.650330,105.347145 74.650330,128.866379 74.650330,152.665466 
	C68.734573,152.665466 63.307762,152.665466 57.484917,152.665466 
	C57.484917,115.774803 57.484917,78.884941 57.484917,41.571846 
	C64.884949,41.571846 72.452156,41.571846 80.778801,41.571846 
	C85.940063,59.618702 91.201172,78.014648 96.462273,96.410599 
	C96.825043,96.425003 97.187820,96.439415 97.550591,96.453827 
	C99.758545,88.751282 101.976860,81.051682 104.171768,73.345421 
	C106.813858,64.069130 109.541336,54.815037 112.009163,45.492393 
	C112.861526,42.272465 114.192635,40.846554 117.797043,41.053371 
	C123.918198,41.404602 130.074127,41.149990 136.609970,41.149990 
	C136.609970,78.379089 136.609970,115.259163 136.609970,152.546997 
	C131.206131,152.546997 125.672737,152.546997 119.682915,152.546997 
	C119.682915,129.324249 119.682915,106.225937 119.844582,82.335663 
	C119.922508,80.451897 119.838776,79.360115 119.755043,78.268326 
	C119.487892,78.286057 119.220741,78.303787 118.953590,78.321526 
	C118.647896,79.560295 118.342201,80.799072 118.036499,82.037849 
z"/>
<path fill="#A24D4D" opacity="1.000000" stroke="none" 
	d="
M118.321945,81.977333 
	C118.342201,80.799072 118.647896,79.560295 118.953590,78.321526 
	C119.220741,78.303787 119.487892,78.286057 119.755043,78.268326 
	C119.838776,79.360115 119.922508,80.451897 119.870270,81.881630 
	C119.358650,82.118660 118.983009,82.017738 118.321945,81.977333 
z"/>
</svg>